<?xml version="1.0" encoding="UTF-8"?>
<svg viewBox="0 0 1024 512" xmlns="http://www.w3.org/2000/svg">
 <g fill-rule="evenodd" stroke-width=".5">
  <path d="m0 256v-256h1024v512h-1024v-256zm736.5 136.8l-2.5 0.2-0.5 0.2-0.5 0.3-2 0.5-2 0.5-2.5 0.5q-2.5 0.5-6 1t-25 1-30-1-23.5-5.5-28-10.5-21.2-14.2q-8.3-7.8-17-19-8.8-11.3-16.6-26-7.7-14.8-16.2-33.3t-13.8-22.7q-5.2-4.3-12.2-5.8t-11.5-1-8 2-8.3 5.2q-4.7 3.8-14.2 25.3t-18 37-17 25.5-20.2 18.8q-11.8 8.7-25.3 14.2t-33 9.2l-19.5 3.8v0.2q0 0.3-21.5-0.2t-38-3.5-32-7.5-25.5-10.5-16.5-13.5-11.7-17.2q-5.3-9.8-13.3-35.3t-14-43.5-9.3-21q-3.2-3-5-13.5-1.7-10.5-2-22.3-0.2-11.7 14.3-15.2t45.5-8.5 72-5.5 54.5 0.5 45.5 6.5l32 5.5 2.5 0.5 2.5 0.5v0.5l36 6.8q36 6.7 54 6.2t45.5-6 30-5.8l2.5-0.2v-0.5l2.5-0.5 2.5-0.5 2-0.5 2-0.5 33.5-6q33.5-6 46.5-7t55.5-0.5 78 6.5 42.3 8.3q6.7 2.2 6.2 14.2t-2.5 21.5-5.5 14-16 46-19 53.5-14.2 19.8q-7.8 7.7-20.3 13.7t-28.5 10-18.5 4.3z" fill="#fff" stroke="#fff"/>
  <path d="m792.5 207.8l0.5 0.2v1.5q0 1.5-2.5 2.7-2.5 1.3-20 10.3t-32 17.5-35.5 26.5-25.2 23.3q-4.3 5.2-5 9.7l-0.8 4.5h-0.5l-0.5-2q-0.5-2-1-3.5t-4.8-2.3q-4.2-0.7-17.7-0.7t-40 2-29.5 2.5l-3 0.5-0.2 0.3-0.3 0.2-0.3 4.5-0.2 4.5h-0.5l-0.5-1-0.5-1-0.5-1-0.5-1-0.3-0.2-0.2-0.3-0.2-0.3-0.3-0.2-0.5-1.5-0.5-1.5-3-13.5q-3-13.5-2.5-27.5t5.2-22.8q4.8-8.7 11.3-14.2t15-9.5 19.5-7 11.5-3.3l0.5-0.2 25.5-4.2q25.5-4.3 58.5-4.3t50.5 3 24 6 7 3.3z" fill="#a4a5a0" stroke="#a4a5a0"/>
  <path d="m736.5 392.8l-2.5 0.2v-0.5l0.2-0.3 0.3-0.2v-1l-0.3-0.2-0.2-0.3h-4l-0.2-0.3-0.3-0.2-0.3-0.2-0.2-0.3-4.5-0.5-4.5-0.5-1-0.3-1-0.2v-2l-2-0.2-2-0.3-0.2-0.3-0.3-0.2-0.3-0.2-0.2-0.3 0.2-0.3 0.3-0.2 0.3-0.5 0.2-0.5 2.5-0.2 2.5-0.3 19-4.5q19-4.5 32-11t18.8-12.2q5.7-5.8 11.2-16.8t7.5-17.5 2.3-8l0.2-1.5h0.5l0.5-2 0.5-2 0.5-1.5 0.5-1.5 0.5-1.5q0.5-1.5 1.8-9l1.2-7.5h0.5l0.5-2 0.5-2 0.5-4.5q0.5-4.5 0.5-15.5t-2-20.5-6.5-16.5-10.8-12l-6.2-5-0.5-0.2q-0.5-0.3-7-3.3t-24-6-50.5-3-58.5 4.3l-25.5 4.2v-0.2q0-0.3 1-2 1-1.8-6.5-3-7.5-1.3-19.5-1.6l-12-0.2v-0.5l2.5-0.5 2.5-0.5 2-0.5 2-0.5 33.5-6q33.5-6 46.5-7t55.5-0.5 78 6.5 42.3 8.3q6.7 2.2 6.2 14.2t-2.5 21.5-5.5 14-16 46-19 53.5-14.2 19.8q-7.8 7.7-20.3 13.7t-28.5 10-18.5 4.3z" fill="#576884" stroke="#576884"/>
  <path d="m402.2 196.8l-0.2-0.3 10-0.3 10-0.2 36 6.8q36 6.7 54 6.2t45.5-6 30-5.8l2.5-0.2 12 0.2q12 0.3 19.5 1.6 7.5 1.2 6.5 3-1 1.7-1 2v0.2l-0.5 0.2q-0.5 0.3-11.5 3.3t-19.5 7-15 9.5-11.3 14.2q-4.7 8.8-5.2 22.8t2.5 27.5l3 13.5 0.5 1.5 0.5 1.5 0.3 0.2 0.2 0.3 0.2 0.3 0.3 0.2 0.5 1 0.5 1 0.5 1 0.5 1h0.5l3.2 7.5q3.3 7.5 3.8 8t1 1.5l0.5 1h0.5l0.2 1 0.3 1 9.3 11.8q9.2 11.7 18.2 18.2t18.5 11 24.5 8 35 4 22.5 0.2l2.5-0.2-0.2 0.5-0.3 0.5-0.3 0.2-0.2 0.3 0.2 0.3 0.3 0.2 0.3 0.2 0.2 0.3 2 0.3 2 0.2v2l1 0.2 1 0.3 4.5 0.5 4.5 0.5 0.2 0.3 0.3 0.2 0.3 0.2 0.2 0.3h4l0.2 0.3 0.3 0.2v1l-0.3 0.2-0.2 0.3v0.5l-0.5 0.2-0.5 0.3-2 0.5-2 0.5-2.5 0.5q-2.5 0.5-6 1t-25 1-30-1-23.5-5.5-28-10.5-21.2-14.2q-8.3-7.8-17-19-8.8-11.3-16.6-26-7.7-14.8-16.2-33.3t-13.8-22.7q-5.2-4.3-12.2-5.8t-11.5-1-8 2-8.3 5.2q-4.7 3.8-14.2 25.3t-18 37-17 25.5-20.2 18.8q-11.8 8.7-25.3 14.2t-33 9.2l-19.5 3.8 0.2-0.5 0.3-0.5 0.3-0.2 0.2-0.3-1-0.5-1-0.5 0.2-0.3 0.3-0.2 0.5-1.5 0.5-1.5 0.3-0.2 0.2-0.3-1-0.5q-1-0.5 0.5-1l1.5-0.5 0.2-0.3 0.3-0.2 0.3-0.2 0.2-0.3 1-0.5 1-0.5-4.5-0.5q-4.5-0.5-11.5-1l-7-0.5v-0.5l15.5-1.2q15.5-1.3 31-5.8t26.3-10.8q10.7-6.2 19.7-14.7t15.5-19 10.5-18 4.7-8q0.8-0.5 0.6-2-0.3-1.5 0-3l0.2-1.5h0.5l0.5-1 0.5-1 0.5-1.5 0.5-1.5 0.5-1 0.5-1 0.5-2q0.5-2 1.5-6t1.5-19-1-20.5-5.8-11.7q-4.2-6.3-11.2-12.3t-21.5-11.5l-14.5-5.5-1-0.3-1-0.2-0.2-1-0.3-1-0.3-0.2-0.2-0.3-0.2-0.3-0.3-0.2-0.3-0.2-0.2-0.3 2-0.7q2-0.8 2.8-2.8 0.7-2 0.4-2.2z" fill="#4c5d7d" stroke="#4c5d7d"/>
  <path d="m810 306v5l-0.2 1.5q-0.3 1.5-2.3 8t-7.5 17.5-11.2 16.8q-5.8 5.7-18.8 12.2t-32 11l-19 4.5-2.5 0.3-2.5 0.2-2.5 0.2q-2.5 0.3-22.5-0.2t-35-4-24.5-8-18.5-11-18.2-18.2l-9.3-11.8-0.3-1-0.2-1 0.2-1 0.3-1 0.3-1 0.2-1 1-0.2 1-0.3 4.5-1q4.5-1 33-1t32.3 1.3q3.7 1.2 6.7 4.2t7.3 7.8q4.2 4.7 8.7 6.2t11 1 8.7-2.8q2.3-2.2 3.3-5.2t1.3-7q0.2-4-0.8-4t-0.5-2.8q0.5-2.7 1.3-4.4 0.7-1.8 2-3 1.2-1.3 2.2-1.8l1-0.5 0.2-0.3 0.3-0.2 0.3-0.2 0.2-0.3 0.2-0.3 0.3-0.2 0.3-0.2 0.2-0.3 0.2-0.3 0.3-0.2 0.3-0.2 0.2-0.3 1-0.5 1-0.5v-0.5l12.5-0.2q12.5-0.3 43-3.3t33.5-3.5 4.5-0.2q1.5 0.2 1.5 1.2t1 1 1 5z" fill="#dfdfd2" stroke="#dfdfd2"/>
  <path d="m385 189l32 5.5 2.5 0.5 2.5 0.5v0.5l-10 0.2-10 0.3 0.2 0.3q0.3 0.2-0.4 2.2-0.8 2-2.8 2.8l-2 0.7 0.2 0.3 0.3 0.2 0.3 0.2 0.2 0.3 0.2 0.3 0.3 0.2 0.3 1 0.2 1-1.5-0.2q-1.5-0.3-23.5-4.3t-62.5-4-57 3-26.3 7.7q-9.7 4.8-8.7 6.8t-0.7 4l-1.8 2h-0.2q-0.3 0-0.6 0.5l-0.2 0.5h-0.2q-0.3 0-0.6 0.5l-0.2 0.5-4.5 2.2q-4.5 2.3-7.3 7-2.7 4.8-4.2 13.8t-1.5 19.5v10.5h0.5l3.2 18.5q3.3 18.5 8.8 32.5t11 22 11.2 12.8q5.8 4.7 19.8 10.2t35 9.5 29 4.3l8 0.2v0.5l7 0.5q7 0.5 11.5 1l4.5 0.5-1 0.5-1 0.5-0.2 0.3-0.3 0.2-0.3 0.2-0.2 0.3-1.5 0.5q-1.5 0.5-0.5 1l1 0.5-0.2 0.3-0.3 0.2-0.3 0.2q-0.2 0.3 0.8 0.6l1 0.2v2l-1.5 0.2-1.5 0.3 1 0.5 1 0.5-0.2 0.3-0.3 0.2-0.3 0.5-0.2 0.5v0.2q0 0.3-21.5-0.2t-38-3.5-32-7.5-25.5-10.5-16.5-13.5-11.7-17.2q-5.3-9.8-13.3-35.3t-14-43.5-9.3-21q-3.2-3-5-13.5-1.7-10.5-2-22.3-0.2-11.7 14.3-15.2t45.5-8.5 72-5.5 54.5 0.5 45.5 6.5z" fill="#556784" stroke="#556784"/>
  <path d="m338.8 307.5l0.2-4.5 0.5-1.5q0.5-1.5 41-4.7 40.5-3.3 52-3.8t12.5 0l1 0.5 1 0.3 1 0.2-0.2 1-0.3 1v1q0 1 0.3 3l0.2 2-0.2 1.5q-0.3 1.5 0 3 0.2 1.5-0.6 2-0.7 0.5-4.7 8t-10.5 18-15.5 19-19.7 14.7q-10.8 6.3-26.3 10.8t-31 5.8l-15.5 1.2-8-0.2q-8-0.3-29-4.3t-35-9.5-19.8-10.2q-5.7-4.8-11.2-12.8t-11-22-8.8-32.5l-3.2-18.5v-9l1.5 0.2 1.5 0.3 1 0.5 1 0.5 9.5 4q9.5 4 13.5 3t12-7.5 13.5-6.5 12.3 5.7q6.7 5.8 7 6.8 0.2 1 4 4.5 3.7 3.5 22.4 24.3 18.8 20.7 21.8 22.2t7.2 0.8q4.3-0.8 7.8-5.8t4-6.5 0.8-6z" fill="#d6d9d2" stroke="#d6d9d2"/>
  <path d="m811 262l1-0.5 2.5-0.3 2.5-0.2-0.2 8-0.3 8-0.3 4.5-0.2 4.5-1.2 7.5q-1.3 7.5-1.8 9l-0.5 1.5-0.5 1.5-0.5 1.5-0.5 2-0.5 2h-0.5v-4q0-4-1-4t-1-2-1.5-2.2q-1.5-0.3-4.5 0.2t-33.5 3.5-43 3.3l-12.5 0.2-1.5 0.2-1.5 0.3-1 0.5-1 0.5-1 0.5-1 0.5-0.2 0.3-0.3 0.2-0.5 1-0.5 1-0.3 0.2-0.2 0.3-0.2 0.3-0.3 0.2-0.3 0.2-0.2 0.3-1 0.3-1 0.2 0.2-1 0.3-1 0.3-0.2 0.2-0.3 0.2-0.3 0.3-0.2 0.3-0.2 0.2-0.3 0.2-0.3 0.3-0.2 0.3-0.2 0.2-0.3 0.2-0.3 0.3-0.2 0.3-0.2 0.2-0.3 0.2-0.3 0.3-0.2 0.3-0.2 0.2-0.3 0.2-0.3 0.3-0.2 16-19q16-19 22.7-24.8 6.8-5.7 11.8-5.2t11.8 5.8q6.7 5.2 9 7 2.2 1.7 7.2 1.7t15-4.5 11-5z" fill="#c2c3b7" stroke="#c2c3b7"/>
  <path d="m671 302l0.5 2h0.5l1.2 5q1.3 5 4 7.8 2.8 2.7 8.8 2.7t10-3 4.5-3.3l0.5-0.2h0.2q0.3 0 0.6-0.5l0.2-0.5h0.2q0.3 0 0.6-0.5l0.2-0.5h0.2q0.3 0 0.6-0.5l0.2-0.5h0.5l0.3-0.2 0.2-0.3 0.2-0.3 0.3-0.2 0.3-0.2 0.2-0.3 1-0.5 1-0.5 1-0.5 1-0.5 1.5-0.3 1.5-0.2v0.5l-1 0.5-1 0.5-0.2 0.3-0.3 0.2-0.3 0.2-0.2 0.3-0.2 0.3-0.3 0.2-0.3 0.2-0.2 0.3-0.2 0.3-0.3 0.2-0.3 0.2-0.2 0.3-1 0.5q-1 0.5-2.2 1.8-1.3 1.2-2 3-0.8 1.7-1.3 4.4-0.5 2.8 0.5 2.8t0.8 4q-0.3 4-1.3 7t-3.3 5.2q-2.2 2.3-8.7 2.8t-11-1-8.7-6.2q-4.3-4.8-7.3-7.8t-6.7-4.2q-3.8-1.3-32.3-1.3t-33 1l-4.5 1-1 0.3-1 0.2-0.2 1-0.3 1-0.3 1-0.2 1h-0.5l-0.5-1q-0.5-1-1-1.5t-3.8-8l-3.2-7.5 0.2-4.5 0.3-4.5 0.3-0.2 0.2-0.3 3-0.5q3-0.5 29.5-2.5t40-2 17.7 0.7q4.3 0.8 4.8 2.3t1 3.5z" fill="#cbccc0" stroke="#cbccc0"/>
  <path d="m397.5 205.8l1.5 0.2 1 0.2 1 0.3 14.5 5.5q14.5 5.5 21.5 11.5t11.2 12.3q4.3 6.2 5.8 11.7t1 20.5-1.5 19-1.5 6l-0.5 2-0.5 1-0.5 1-0.5 1.5-0.5 1.5-0.5 1-0.5 1h-0.5l-0.2-2q-0.3-2-0.3-3v-1l0.3-1 0.2-1-1-0.2-1-0.3-1-0.5q-1-0.5-12.5 0t-52 3.8q-40.5 3.2-41 4.7l-0.5 1.5h-0.2q-0.3 0-1.8-3t-7.2-8.8q-5.8-5.7-25-21.4-19.3-15.8-42.6-29.6l-23.2-13.7h-3l-0.2 0.3-0.3 0.2-0.3 4-0.2 4h-2l-0.2-3-0.3-3-0.3 0.2-0.2 0.3-2.5 0.5q-2.5 0.5-2.5 2.2 0 1.8-1.5 1.6l-1.5-0.3-0.2-0.3-0.3-0.2-0.3 0.2-0.2 0.3-1 0.3-1 0.2-0.2-1q-0.3-1-0.6-5.2-0.2-4.3-2.7-3.6l-2.5 0.8v-2l0.5-0.2 0.5-0.3v-0.5l0.5-0.2q0.5-0.3 0.5-0.6v-0.2l1.8-2q1.7-2 0.7-4t8.7-6.8q9.8-4.7 26.3-7.7t57-3 62.5 4 23.5 4.3z" fill="#b6b7b1" stroke="#b6b7b1"/>
  <path d="m793 209.5v-1.5l6.2 5q6.3 5 10.8 12t6.5 16.5 2 20.5-0.5 15.5l-0.5 4.5-0.5 2-0.5 2h-0.5l0.2-4.5 0.3-4.5 0.3-8 0.2-8-2.5 0.2-2.5 0.3-1 0.5q-1 0.5-11 5t-15 4.5-7.2-1.7q-2.3-1.8-9-7-6.8-5.3-11.8-5.8t-11.8 5.2q-6.7 5.8-22.7 24.8l-16 19-0.3 0.2-0.2 0.3-0.2 0.3-0.3 0.2-0.3 0.2-0.2 0.3-0.2 0.3-0.3 0.2-0.3 1-0.2 1-0.5 0.2q-0.5 0.3-0.5 0.6v0.2l-0.5 0.2q-0.5 0.3-0.5 0.6v0.2l-0.5 0.2q-0.5 0.3-0.5 0.6v0.2l-0.5 0.2q-0.5 0.3-4.5 3.3t-10 3-8.8-2.7q-2.7-2.8-4-7.8l-1.2-5 0.8-4.5q0.7-4.5 5-9.7 4.2-5.3 25.2-23.3t35.5-26.5 32-17.5 20-10.3q2.5-1.2 2.5-2.7z" fill="#676668" stroke="#676668"/>
  <path d="m214.5 222.8l2.5-1.8-1 1.8q-1 1.7 1.5 1.2t2.7 3.8q0.3 4.2 0.6 5.2l0.2 1 1-0.2 1-0.3 0.2-0.3 0.3-0.2 0.3 0.2 0.2 0.3 1.5 0.3q1.5 0.2 1.5-1.6 0-1.7 2.5-2.2l2.5-0.5 0.2-0.3 0.3-0.2 0.3 3 0.2 3h2l0.2-4 0.3-4 0.3-0.2 0.2-0.3h3l23.2 13.7q23.3 13.8 42.6 29.6 19.2 15.7 25 21.4 5.7 5.8 7.2 8.8t1.8 3h0.2l-0.2 4.5q-0.3 4.5-0.8 6t-4 6.5-7.8 5.8q-4.2 0.7-7.2-0.8t-21.8-22.2q-18.7-20.8-22.4-24.3-3.8-3.5-4-4.5-0.3-1-7-6.8-6.8-5.7-12.3-5.7t-13.5 6.5-12 7.5-13.5-3l-9.5-4-1-0.5-1-0.5-1.5-0.3-1.5-0.2v9h-0.5v-10.5q0-10.5 1-17.5t3.7-13.2q2.8-6.3 6.3-8.3t6-3.7z" fill="#79726f" stroke="#79726f"/>
 </g>
</svg>
